<svg xmlns="http://www.w3.org/2000/svg" xmlns:svg="http://www.w3.org/2000/svg" xmlns:xlink="http://www.w3.org/1999/xlink" id="svg2" width="16" height="16" version="1.1"><defs id="defs3"><linearGradient id="linearGradient7634"><stop id="stop7636" offset="0" stop-color="red" stop-opacity="1"/><stop id="stop7638" offset="1" stop-color="maroon" stop-opacity="1"/></linearGradient><linearGradient id="linearGradient3762"><stop id="stop3764" offset="0" stop-color="#ff1919" stop-opacity="1"/><stop id="stop3766" offset="1" stop-color="#690000" stop-opacity="1"/></linearGradient><radialGradient id="radialGradient3768" cx="7.857" cy="7.897" r="7.884" fx="7.857" fy="7.897" gradientTransform="matrix(0.84389778,-0.00404632,0.00484449,1.0281669,1.188259,-0.19065057)" gradientUnits="userSpaceOnUse" xlink:href="#linearGradient3762"/><radialGradient id="radialGradient3779" cx="7.857" cy="7.897" r="7.884" fx="7.857" fy="7.897" gradientTransform="matrix(0.98418048,0.00197761,-0.00195401,0.9895827,0.13972802,0.06673046)" gradientUnits="userSpaceOnUse" xlink:href="#linearGradient7634"/></defs><metadata id="metadata6"/><g id="layer1" transform="translate(0,-1036.3622)"><g id="g3774" transform="matrix(1.1666681,0,0,1.1666659,-1.3333365,-174.05962)"><path id="path2984" fill="url(#radialGradient3779)" fill-opacity="1" stroke="#000" stroke-dasharray="none" stroke-linecap="round" stroke-linejoin="round" stroke-miterlimit="4" stroke-opacity="1" stroke-width=".5" d="m 15.491072,7.8973212 c 0,4.2530858 -3.417827,7.7008928 -7.6339291,7.7008928 -4.2161024,0 -7.63392875,-3.447807 -7.63392875,-7.7008928 0,-4.2530857 3.41782635,-7.7008929 7.63392875,-7.7008929 4.2161021,0 7.6339291,3.4478072 7.6339291,7.7008929 z" transform="matrix(0.76114705,0,0,0.75452839,2.0195589,1038.4035)"/><path id="path3770" fill="none" stroke="#fff" stroke-linecap="butt" stroke-linejoin="miter" stroke-opacity="1" stroke-width="1" d="M 11,5 5,11" transform="translate(0,1036.3622)"/><path id="path3772" fill="none" stroke="#fff" stroke-linecap="butt" stroke-linejoin="miter" stroke-opacity="1" stroke-width="1" d="m 5,5 6,6" transform="translate(0,1036.3622)"/></g></g></svg>