<svg xmlns="http://www.w3.org/2000/svg" xmlns:svg="http://www.w3.org/2000/svg" xmlns:xlink="http://www.w3.org/1999/xlink" id="svg3747" width="32" height="32" version="1.1"><defs id="defs3749"><linearGradient id="linearGradient4467"><stop id="stop4469" offset="0" stop-color="maroon" stop-opacity="1"/><stop id="stop4471" offset="1" stop-color="maroon" stop-opacity="0"/></linearGradient><linearGradient id="linearGradient3759"><stop id="stop3761" offset="0" stop-color="maroon" stop-opacity="1"/><stop id="stop4475" offset=".375" stop-color="red" stop-opacity="1"/><stop id="stop3763" offset="1" stop-color="#ff8080" stop-opacity="0"/></linearGradient><linearGradient id="linearGradient3765" x1="22.33" x2="5.001" y1="30.178" y2="-3.096" gradientUnits="userSpaceOnUse" xlink:href="#linearGradient3759"/><linearGradient id="linearGradient4473" x1="14.898" x2="17.088" y1="10.143" y2="10.143" gradientUnits="userSpaceOnUse" xlink:href="#linearGradient4467"/><linearGradient id="linearGradient4487" x1="22.33" x2="5.001" y1="30.178" y2="-3.096" gradientUnits="userSpaceOnUse" xlink:href="#linearGradient3759"/></defs><metadata id="metadata3752"/><g id="layer1"><g id="g4481" transform="matrix(1.2221431,0,0,1.2209925,-3.4418725,-2.5725064)"><path id="path3757" fill="url(#linearGradient4487)" fill-opacity="1" stroke="#000" stroke-dasharray="none" stroke-miterlimit="4" stroke-opacity="1" stroke-width="1" d="m 28.041218,17.086359 c 0,6.954235 -5.637522,12.591757 -12.591757,12.591757 -6.9542353,0 -12.5917568,-5.637522 -12.5917568,-12.591757 0,-6.954235 5.6375215,-12.5917568 12.5917568,-12.5917568 6.954235,0 12.591757,5.6375218 12.591757,12.5917568 z" transform="translate(0.4465162,-1.875368)"/><path id="path3001" fill="none" stroke="#000" stroke-dasharray="none" stroke-linejoin="round" stroke-miterlimit="4" stroke-opacity="1" stroke-width="1.228" d="m 20.199089,10.435231 c 1.260596,1.142836 2.047498,2.763633 2.047498,4.561179 0,3.461331 -2.917743,6.267295 -6.516962,6.267295 -3.599218,0 -6.5169604,-2.805964 -6.5169604,-6.267295 0,-1.780325 0.771897,-3.387271 2.0113984,-4.528202"/><path id="path3778" fill="none" stroke="#000" stroke-dasharray="none" stroke-linecap="butt" stroke-linejoin="miter" stroke-miterlimit="4" stroke-opacity="1" stroke-width="1.228" d="m 15.822901,6.6656816 -0.07307,6.2168894"/></g></g></svg>