<svg xmlns="http://www.w3.org/2000/svg" xmlns:svg="http://www.w3.org/2000/svg" id="svg2" width="32" height="32" version="1.0"><metadata id="metadata6"/><g id="layer1"><path id="path2388" fill="red" fill-opacity=".912" stroke="maroon" stroke-opacity="1" d="M 31.31473,16.279501 A 15.152288,15.089153 0 1 1 1.0101528,16.279501 A 15.152288,15.089153 0 1 1 31.31473,16.279501 z" transform="matrix(1.0221465,0,0,1.0264233,-0.5203829,-0.7096579)"/></g><g id="layer2"><path id="path2386" fill="#fff" fill-rule="evenodd" stroke="#000" stroke-linecap="butt" stroke-linejoin="miter" stroke-opacity="1" stroke-width=".89" d="M 7.3599231,22.004399 L 7.3599231,26.723749 C 7.3599231,26.723749 15.747244,25.115062 16.983264,19.15969 L 22.488037,19.15969 L 22.488037,14.710245 C 19.482032,14.59788 19.630056,14.822611 18.219286,14.710245 C 18.219286,14.710245 18.96547,9.8362499 23.377927,9.3709096 L 23.377927,4.9214638 C 23.377927,4.9214638 15.20427,5.3631148 14.174127,12.228602 C 13.143622,19.096504 10.730886,20.656014 7.3599231,22.004399 z"/></g></svg>