<svg xmlns="http://www.w3.org/2000/svg" xmlns:svg="http://www.w3.org/2000/svg" id="svg2" width="16" height="16" version="1.1"><defs id="defs3113"><filter id="filter3989" width="1.31" height="1.315" x="-.155" y="-.157"><feGaussianBlur id="feGaussianBlur3991" stdDeviation="1.022"/></filter></defs><metadata id="metadata3116"/><g id="layer1" transform="translate(0,-1036.3622)"><path id="path3119-3" fill="#333" fill-opacity="1" stroke="none" d="m 15.973037,8.2660198 c 0,4.3062272 -3.54742,7.7971152 -7.9233839,7.7971152 -4.3759643,0 -7.92338424,-3.490888 -7.92338424,-7.7971152 0,-4.3062276 3.54741994,-7.79711483 7.92338424,-7.79711483 4.3759639,0 7.9233839,3.49088723 7.9233839,7.79711483 z" filter="url(#filter3989)" transform="matrix(0.47742428,0,0,0.48786981,5.2889114,1040.8291)"/><path id="path3119" fill="#8af78a" fill-opacity="1" stroke="green" stroke-dasharray="none" stroke-dashoffset="0" stroke-linecap="round" stroke-linejoin="miter" stroke-miterlimit="4" stroke-opacity="1" stroke-width=".5" d="m 15.973037,8.2660198 c 0,4.3062272 -3.54742,7.7971152 -7.9233839,7.7971152 -4.3759643,0 -7.92338424,-3.490888 -7.92338424,-7.7971152 0,-4.3062276 3.54741994,-7.79711483 7.92338424,-7.79711483 4.3759639,0 7.9233839,3.49088723 7.9233839,7.79711483 z" transform="matrix(0.47742428,0,0,0.48786981,4.1603709,1039.9421)"/></g></svg>