<svg xmlns="http://www.w3.org/2000/svg" xmlns:svg="http://www.w3.org/2000/svg" xmlns:xlink="http://www.w3.org/1999/xlink" id="svg2" width="32" height="32" version="1.1"><defs id="defs3"><linearGradient id="linearGradient3815"><stop id="stop3817" offset="0" stop-color="#9c9c9c" stop-opacity="1"/><stop id="stop3819" offset="1" stop-color="#fff" stop-opacity="1"/></linearGradient><linearGradient id="linearGradient3807"><stop id="stop3809" offset="0" stop-color="#999" stop-opacity="1"/><stop id="stop3811" offset="1" stop-color="#fff" stop-opacity="1"/></linearGradient><linearGradient id="linearGradient3777"><stop id="stop3779" offset="0" stop-color="red" stop-opacity="1"/><stop id="stop3781" offset="1" stop-color="#660600" stop-opacity="1"/></linearGradient><linearGradient id="linearGradient2999"><stop id="stop3001" offset="0" stop-color="#0f0" stop-opacity="1"/><stop id="stop3003" offset="1" stop-color="#006c00" stop-opacity="1"/></linearGradient><linearGradient id="linearGradient3601"><stop id="stop3603" offset="0" stop-color="#fea" stop-opacity="1"/><stop id="stop3605" offset="1" stop-color="#a0892c" stop-opacity="1"/></linearGradient><linearGradient id="linearGradient2821"><stop id="stop2823" offset="0" stop-color="#c8ab37" stop-opacity="1"/><stop id="stop2825" offset="1" stop-color="#fea" stop-opacity="1"/></linearGradient><linearGradient id="linearGradient2827" x1="17" x2="17" y1="30.5" y2="15.5" gradientUnits="userSpaceOnUse" xlink:href="#linearGradient2821"/><linearGradient id="linearGradient3607" x1="13.258" x2="13.258" y1="1.5" y2="22.293" gradientUnits="userSpaceOnUse" xlink:href="#linearGradient3601"/><linearGradient id="linearGradient3005" x1="18.393" x2="18.393" y1="1026.916" y2="1035.755" gradientTransform="matrix(0.77544041,0.47830451,-0.41398115,0.8959264,435.0972,95.947657)" gradientUnits="userSpaceOnUse" xlink:href="#linearGradient2999"/><linearGradient id="linearGradient3775" x1="18.802" x2="18.511" y1="1025.879" y2="1036.939" gradientTransform="matrix(-0.87068659,-0.60961826,0.68982405,-0.84391505,-672.08926,1909.6928)" gradientUnits="userSpaceOnUse" xlink:href="#linearGradient3777"/><linearGradient id="linearGradient3813" x1="28.025" x2="5.175" y1="31.286" y2="7.536" gradientTransform="matrix(0.95800091,0,0,1,0.03749919,1020.3622)" gradientUnits="userSpaceOnUse" xlink:href="#linearGradient3807"/><linearGradient id="linearGradient3821" x1="7.679" x2="5.982" y1="11.018" y2="8.25" gradientUnits="userSpaceOnUse" xlink:href="#linearGradient3815"/><linearGradient id="linearGradient5070" x1="28.025" x2="5.175" y1="31.286" y2="7.536" gradientTransform="matrix(0.95800091,0,0,1,0.03749919,1020.3622)" gradientUnits="userSpaceOnUse" xlink:href="#linearGradient3807"/><linearGradient id="linearGradient5072" x1="7.679" x2="5.982" y1="11.018" y2="8.25" gradientTransform="matrix(0.90995035,0,0,0.93602165,0.24081686,1020.9406)" gradientUnits="userSpaceOnUse" xlink:href="#linearGradient3815"/></defs><metadata id="metadata6"/><g id="layer1" transform="translate(0,-1020.3622)"><rect id="rect5623" width="30.431" height="13.132" x="1.136" y="5.862" fill="#0ff" fill-opacity="1" stroke="none" stroke-dasharray="none" stroke-linecap="round" stroke-linejoin="round" stroke-miterlimit="4" stroke-opacity="1" stroke-width=".5" transform="translate(0,1020.3622)"/><path id="path5602" fill="#37c837" stroke="green" stroke-linecap="butt" stroke-linejoin="miter" stroke-opacity="1" stroke-width="1" d="m 1.5152288,1035.1896 c 0,0 10.8503762,-3.5702 17.6776692,5.1771 1.033853,1.3245 2.861344,4.8676 1.819976,5.0232 -3.702884,0.5531 -19.8764524,0.4063 -19.8764524,0.4063 z"/><path id="path5602-6" fill="#37c837" stroke="green" stroke-linecap="butt" stroke-linejoin="miter" stroke-opacity="1" stroke-width="1" d="m 19.579789,1036.1727 c 3.962318,-1.778 5.420806,-2.4338 10.480332,0.2526 1.484013,0.7879 0.967308,8.5294 -0.07406,8.685 -3.702884,0.5531 -18.361223,0.28 -18.361223,0.28 0,0 3.992633,-7.4396 7.954951,-9.2176 z"/><path id="rect5582" fill="#a05a2c" fill-opacity="1" stroke="none" d="m 0.28124995,1024.3622 0,24 31.43750005,0 0,-24 z M 3,1027.2021 l 26,0 0,17.5625 -26,0 z"/><path id="path5625" fill="#ff0" fill-opacity="1" stroke="none" d="m 21.086934,10.723662 a 3.5986683,3.4723995 0 1 1 -7.197336,0 3.5986683,3.4723995 0 1 1 7.197336,0 z" transform="translate(-0.25253814,1020.741)"/></g></svg>