<svg xmlns="http://www.w3.org/2000/svg" xmlns:svg="http://www.w3.org/2000/svg" xmlns:xlink="http://www.w3.org/1999/xlink" id="svg2" width="16" height="16" version="1.1"><defs id="defs3"><linearGradient id="linearGradient4955"><stop id="stop4957" offset="0" stop-color="#2dd7ff" stop-opacity="1"/><stop id="stop4959" offset="1" stop-color="#0010bb" stop-opacity="1"/></linearGradient><linearGradient id="linearGradient3827"><stop id="stop3829" offset="0" stop-color="#ff2d2d" stop-opacity="1"/><stop id="stop3831" offset="1" stop-color="#b00" stop-opacity="1"/></linearGradient><radialGradient id="radialGradient3833" cx="12.121" cy="4.683" r="3.04" fx="12.121" fy="4.683" gradientTransform="matrix(1,0,0,0.94126284,0,0.27506824)" gradientUnits="userSpaceOnUse" xlink:href="#linearGradient3827"/><radialGradient id="radialGradient3840" cx="12.121" cy="4.683" r="3.04" fx="12.121" fy="4.683" gradientTransform="matrix(1,0,0,0.94126284,0,0.27506824)" gradientUnits="userSpaceOnUse" xlink:href="#linearGradient4955"/></defs><metadata id="metadata6"/><g id="layer1" transform="translate(0,-1036.3622)"><path id="path2984" fill="#ffe680" stroke="#504416" stroke-dasharray="none" stroke-linecap="butt" stroke-linejoin="round" stroke-miterlimit="4" stroke-opacity="1" stroke-width=".495" d="m 0.35714284,1052.0497 0,-12.8173 5.71428576,0 0,3.4506 5.8928584,0 0,9.3667 z"/><g id="g3835" transform="matrix(1.3842643,0,0,1.2677179,-3.6312121,-277.2289)"><path id="path3814" fill="url(#radialGradient3840)" fill-opacity="1" stroke="#000" stroke-dasharray="none" stroke-linecap="round" stroke-linejoin="round" stroke-miterlimit="4" stroke-opacity="1" stroke-width=".412" d="m 14.910714,4.6830359 c 0,1.4423507 -1.249205,2.611607 -2.790178,2.611607 -1.540973,0 -2.7901787,-1.1692563 -2.7901787,-2.611607 0,-1.4423508 1.2492057,-2.6116071 2.7901787,-2.6116071 1.540973,0 2.790178,1.1692563 2.790178,2.6116071 z" transform="matrix(1.298014,0,0,1.4148794,-5.4177358,1033.7115)"/><path id="path4389" fill="#fff" stroke="none" d="m 8.6303875,1041.6232 c 0,0 1.3283294,-0.3617 1.3835455,-1.5901 0.06948,-1.5456 0.601808,-1.6317 0.920187,-1.8257 0.318378,-0.1939 0.899883,-0.2122 0.899911,-0.1195 l 1.96e-4,0.6537 c 0,0 -1.163259,-0.2043 -1.107826,1.0963 l 0.747584,-0.01 0.03602,0.7672 -0.801621,-0.032 c 0,0 -0.216969,0.6868 -0.688076,1.142 -0.5147533,0.4975 -1.0645376,0.6918 -1.143953,0.503 z"/></g><path id="path2986" fill="#fd5" stroke="#504416" stroke-dasharray="none" stroke-linecap="round" stroke-linejoin="round" stroke-miterlimit="4" stroke-opacity="1" stroke-width=".471" d="m 0.40178571,1051.9678 3.52565469,-5.4075 11.7868456,0 -3.562996,5.4648 z"/></g></svg>