<svg xmlns="http://www.w3.org/2000/svg" xmlns:svg="http://www.w3.org/2000/svg" id="svg3842" width="16" height="16" version="1.1"><metadata id="metadata3847"/><g id="layer1"><rect id="rect3850" width="13.92" height="14.281" x=".991" y=".773" fill="#04a" fill-opacity="1" stroke="#000" stroke-dasharray="none" stroke-linecap="round" stroke-linejoin="round" stroke-miterlimit="4" stroke-opacity="1" stroke-width=".5"/><rect id="rect3852" width="8.74" height="5.676" x="3.829" y=".233" fill="#b3b3b3" fill-opacity="1" stroke="none"/><rect id="rect4364" width="2.343" height="4.73" x="8.199" y=".638" fill="#04a" fill-opacity="1" stroke="none"/><rect id="rect4366" width="10.226" height="7.388" x="2.793" y="7.801" fill="#ececec" fill-opacity="1" stroke="none"/><path id="path4389" fill="red" stroke="none" d="m 5.4409356,13.084131 c 0,0 1.838759,-0.458534 1.9151926,-2.015799 C 7.4523069,9.1089476 8.1891896,8.9997971 8.6299103,8.7538598 9.0706296,8.5080493 9.8755862,8.4848501 9.8756249,8.6023675 l 2.713e-4,0.8287072 c 0,0 -1.6102579,-0.2589948 -1.5335239,1.3897993 l 1.0348538,-0.01268 0.049861,0.972593 -1.1096553,-0.04057 c 0,0 -0.3003425,0.870669 -0.9524791,1.447734 -0.7125544,0.630689 -1.4736012,0.877007 -1.5835331,0.637662 z"/></g></svg>